<svg version="1.0" xmlns="http://www.w3.org/2000/svg" width="666.667" height="666.667" viewBox="0 0 500 500"><path d="M225.7 36.5C162 44.6 107.3 78.1 72.2 130.6c-33.6 50.1-44.3 113.5-29.1 172.1 6.9 26.9 17.9 50.1 35.2 74.2l6.4 8.9.5 15.6c.4 12 .8 16 2 17.3 2.2 2.6 3.2 13.7 1.3 15.3-1 .9-1.5 3.2-1.5 7.6 0 3.9-.7 7.7-1.7 10-1.7 3.5-1.7 3.7.3 5.3 1.9 1.5 4.5 1.5 33 .4 17-.7 39.5-1.6 49.9-2.1 19-.9 19-.9 30 1.9 16.7 4.3 32.7 6.2 52 6.2 25.5 0 46.1-3.4 71-11.8l10-3.3 43-1.7c23.7-1 43.8-2.1 44.8-2.7 2.2-1.1 2.2-4.3-.2-7.6-1.4-2.1-2-5.4-2.6-14.5-.5-8.6-1.2-12.2-2.3-13.4-1.3-1.3-1.4-1.8-.2-3.7.9-1.4 1.3-4.6 1.1-9.8l-.2-7.7 6.2-8.2c48.9-64.1 57.3-151.8 21.4-224.4-30.9-62.6-90.4-106.3-159.5-117-14.6-2.2-43.8-2.8-57.3-1zm64 17.9c26.3 5.6 51.2 15.9 71.6 29.8 3.1 2.1 6.2 3.6 6.9 3.2.6-.4.8-.3.5.3-.4.6 3.1 4 7.6 7.6 9.8 7.8 23 21.2 31.6 32.2 6.5 8.2 7.9 9.9 6.8 7.8-.4-.6-.2-1.3.4-1.5.9-.3.9-1 0-2.7-1.1-1.9-1.5-2-2.9-.9s-1.5 1.1-.9-.5c.4-1 .3-1.6-.2-1.2-1.7 1-2.1-1.2-.5-2.5 1.1-1 1.7-1.1 2.7-.1.7.7 1.2 1.5 1.2 1.9.1 1 3.5 7.2 4 7.2.2 0 .2-.7-.1-1.5-.4-.8-.1-1.5.5-1.5s1.1.5 1.1 1.2c0 .6.3.8.7.4 1.8-1.8 17.6 27.2 23.7 43.7 8.5 22.8 11.6 39.3 12.3 64.7.8 29.9-2.9 53.6-12.2 78.5-4.2 11.2-10.1 23.6-11.6 24.6-.6.3-1 .9-1 1.3.3 1.7 0 2.6-1.2 3.8-.7.7-1.8 2.6-2.5 4.1-.7 1.7-1.7 2.5-2.4 2.1-.7-.4-.8-.3-.4.5.5.7-.4 2.9-1.9 5.2-2.3 3.6-2.8 3.9-4.3 2.7-1.5-1.2-1.6-1.1-.4.4 1.7 2.2-.2 6.3-2.5 5.4-.8-.3-1.9-.6-2.5-.6-.6 0-.8-1.3-.6-3 .3-1.6.1-3-.4-3-1.4 0-.9-9 .8-12.2.9-1.6 1.2-2.8.7-2.5-.5.3-1-3-1.1-7.4-.2-4.3 0-7.9.3-7.9 1.2 0 4.4 4 3.6 4.5-.5.3-.7 1.4-.4 2.5.3 1.2-.2 2.9-1.1 3.9-1.3 1.4-1.4 2.1-.5 2.7.7.4 1 .3.6-.3s0-1.7.9-2.4c1.7-1.4 4.8-6.9 3.9-6.9-.3 0 .3-1 1.5-2.2 2-2.2 2.8-4.4 1.1-3.3-.5.3-1.2-.3-1.4-1.2-.3-1-.5-.5-.4 1.1.1 1.8-.4 3-1.3 3.3-.9.3-1.1.1-.5-.4.6-.4.8-2.1.4-3.8-.4-1.7-.7-2.2-.8-1.3 0 1-.6 1.8-1.2 1.8s-.8.9-.4 2c.8 2.4-1 2.7-1.9.4-.4-1 .1-2.5 1-3.6 1-1 1.5-2.1 1.2-2.4-.3-.3-1.5.7-2.7 2.2-1.1 1.5-2.1 2.3-2.1 1.8 0-.5.9-2 1.9-3.4 1.8-2.2 2.1-2.3 4.5-1.1 2.1 1.2 2.8 1.2 4.3 0 1.5-1.1 1.6-1.1.6.1-1.5 1.6-1.7 3-.5 3 .5 0 1.6-1.6 2.5-3.5l1.7-3.5-3.1 1.5c-3 1.6-3.1 1.6-2.4-.4.5-1.6.2-2.1-1.2-2.1-1.1 0-2.4.5-3 1.1-3 3-4.6-3.8-1.8-7.5.8-1.1 1.5-3 1.5-4.2 0-4.4-1.8-4.7-23.1-4.5-11 .1-20.8.4-21.9.6-1.2.2-2.6-.5-3.5-1.8-.9-1.2-4.7-6.6-8.5-12-4.1-5.7-6.4-9.7-5.5-9.7.7 0 1.6-.4 1.9-.8.7-1.2-4.9-12.8-8.2-17.2l-2.6-3.4 3.8 2.3c2.6 1.6 4.1 2 4.8 1.3 1.2-1.2-.8-4.4-8.3-13-2.7-3-4.7-5.7-4.5-6 .3-.2 1.9.1 3.7.7 7.9 2.7 10.6.4 6.9-6.1-4.7-8.4-16.3-23.9-19.2-25.6-2.8-1.6-2.8-1.7-.7-2.2 1.8-.5 1.4-1-3.2-3.4-3-1.6-7-4-8.9-5.3l-3.5-2.3h5c2.8.1 7.9.7 11.5 1.5 3.6.7 6.6 1.2 6.8 1 .6-.6-13.4-7.8-21.5-11-13.1-5.4-21-6.9-31.8-6.2l-9.4.5 2.4-4.4c1.3-2.4 2.5-4.8 2.7-5.4.2-.6 6.3 1.1 14.3 3.9 15.3 5.3 25.5 7.6 38.4 8.6 6.1.5 8.1.4 7.6-.5-.4-.6-1.3-.9-2-.6-1.3.5-16.4-1.5-21.9-2.9l-2.9-.8 2.9-1.4c1.6-.7 2.1-1.1 1.2-.9-1 .3-1.5 0-1.2-.7.2-.7-2.6-2.8-6.6-5-3.8-2.1-7-4-7-4.2 0-.2 4.8 1.9 10.8 4.7 19.9 9.3 20.9 9 1.7-.6-11.2-5.6-12.4-6.4-8.5-5.8 6.3 1 55 .6 56.1-.5.5-.5-2.3-1.9-6.4-3.3-19.6-6.5-56.4-23.1-60.2-27.2-.7-.7 1.1-.9 6-.4 24.3 2.1 33.8 2.7 40 2.4l7-.3-13-4.5c-7.1-2.5-14.1-4.8-15.5-5.2-1.4-.3-4.3-1.3-6.5-2.2l-4-1.5 5.6-.1c3.1 0 5.8-.3 6.2-.6.9-.9 47.2-.4 54.2.5 4 .6 6.5.5 7.5-.2 1.2-.9 1.3-.9.3.3-1.5 1.7-1.7 3.4-.3 2.5.6-.3 1.6-.3 2.3.2 2.3 1.4 3.7 1.1 3.7-.8 0-1.3-.4-1.8-1.2-1.3-.7.5-.8.3-.3-.6.6-1 1.2-.8 2.7.9 1.1 1.5 1.8 1.8 1.8.9 0-.8 1.2-1.8 2.7-2.4l2.8-.9-7.6-8.5c-20.6-23.2-48.6-42.4-76.3-52.4-1.5-.5-1.6-.9-.6-2.1 1.1-1.3.5-1.5-3.9-1.5-2.9 0-9.6-1.1-14.9-2.4-33.6-8.5-68.4-8-101.4 1.5-8.7 2.5-10.6 3.4-10.1 4.8.4 1.2.3 1.3-.5.2-.6-.8-1.8-1.1-3.1-.6-2.4.7-2.4.8-1-3.3 1-2.9 1.9-3.4 9.3-5.7 22.6-6.9 34.8-8.4 63.1-8 20.1.3 24.5.6 35.2 2.9zM181.1 64.7c-2.6 4.6-5.4 6.6-15.6 11.6-20.5 10.1-37 22.3-53.6 39.4-37.1 38.2-55.6 87.2-53.6 141.8 1 28.3 6.9 51.9 19.3 77 4.4 8.9 5.4 12 5.4 16v5l-2-2.5c-3.9-4.8-15-28.6-18.9-40.5-7.1-21.2-9.2-34-9.8-58-.4-16.3-.2-23.5 1.1-32 3-20.6 9-40.9 16.7-57 2.5-5.1 2.7-6 1.4-6.8-1.9-1-1-2.7 1.4-2.7 1.2 0 3.4-2.6 6.4-7.9 20.8-35.7 55.8-66 95.7-82.7 6.7-2.8 7.3-2.9 6.1-.7zM314 66.5c0 .3-7.1 5.2-15.7 10.9-10.3 6.7-18.1 11.1-22.3 12.4-3.7 1.3-5 1.9-3 1.6 14.9-2.2 20.9-2.6 31-2.1 11.4.6 25.8 2.7 33.5 4.9 3.7 1.1 3.2 1.3-8.7 1.9-14.6.8-22.7 2.3-28.2 5.1-2.2 1.1-5.6 2.6-7.5 3.3-3.3 1.2-2.7 1.3 7.4 1.3 8.4 0 12.4.5 17 2 10.8 3.6 53.9 19.3 54.4 19.8.9.9-44.3-.1-46.1-1-1.3-.6-1.8-.4-1.8.8 0 1.9-2.3 2-15.8.5-11.7-1.2-21.2-3.5-39.7-9.3l-14-4.5 7.5-3.5c10.3-4.8 10.7-5.2 5.2-5.3-3.8 0-4.1.1-1.7.6 2.9.7 2.9.7.9 1.8-1.1.7-9 3.2-17.5 5.7-18.4 5.3-30.1 10.1-41 16.7-9 5.5-10.1 5.9-7.3 2.7l1.9-2.2-3.7 2.3c-2.1 1.2-3.8 2-3.8 1.8 0-.3 1.6-2.8 3.5-5.7 3.9-5.8 5-10.5 1.2-5.5-4.9 6.6-12.7 15.3-15.3 16.9l-2.7 1.8.8-4.8c.4-2.7 1.3-6.4 2-8.2.8-1.7 1.2-3.2.9-3.2-.2 0-2.4 2.7-4.9 6.1-4.7 6.4-5.1 6.7-3.5 2.5.9-2.4.2-3.4-1.4-1.9-1.4 1.5-3.5 1.1-2.9-.5.2-1-.9-.2-2.6 1.6-2.7 2.8-3.1 3-3.1 1.2 0-1.1 1.4-4.8 3.1-8.1 1.7-3.4 2.8-6.3 2.5-6.6-.2-.3-2.1 1.9-4.1 4.9-3.3 4.7-3.6 4.9-3.1 2.3.5-2.8.4-2.7-1.3.7-1 2.1-2.1 4.1-2.4 4.5-.8.7 0-4.3 1.3-9.2 1.8-6.8 2.1-8.7 1-8-2 1.2-5.8 8.1-7.6 13.8-1.7 5.5-3.4 7.5-3.4 3.9 0-.9 1.8-8.7 4-17.2l3.9-15.5.1 7c.2 7.7.6 7.1 3.4-4.8 1.4-6.4 10.4-27.2 11.3-26.3.2.2-.3 2.8-1.1 5.7-.9 3-2 9.7-2.6 15-.5 5.3-1.2 10.5-1.6 11.5-.8 2.3 8-7.3 11.9-12.9 3.9-5.8 3.3-2.2-1.2 6.8-2.1 4.2-3.3 7.1-2.6 6.3.6-.7 3.5-4.1 6.4-7.6 3.7-4.3 9.1-8.8 17.3-14.3 11.1-7.4 24.5-14.9 26.7-14.9.5 0-2.7 3.5-7.1 7.7-11.4 11.1-11.5 12-1.1 7.1 9-4.1 44.2-16.3 44.9-15.5.3.2-4.5 4.1-10.6 8.7-6 4.5-11 8.3-11 8.5 0 .2 1.7-.5 3.8-1.6 6.2-3.2 46.3-17.6 52.2-18.8 3-.6 6.4-1.3 7.5-1.5 3.2-.6 6.5-.6 6.5-.1zm-203 35.9c0 1.1-1.9 1.5-2.5.6-.3-.5.1-1 .9-1 .9 0 1.6.2 1.6.4zm223.5.6c-.3.5-1 1-1.6 1-.5 0-.9-.5-.9-1 0-.6.7-1 1.6-1 .8 0 1.2.4.9 1zm6.5 3c0 1.3-3.3 2.1-4.3 1.1-1.6-1.6 1.2-4.4 2.9-3 .8.6 1.4 1.5 1.4 1.9zm-74 14 13.5 4-18-.6c-15.8-.5-18.2-.4-19.4 1-2.7 3.2-.6 4.6 7.1 4.7l7.3.1-4 1.3c-5.4 1.8-10.3 1.8-12.1 0-.9-.8-1.2-1.5-.8-1.5.3 0 0-.8-.7-1.7-1.2-1.4-1.2-1.6.1-.9.8.4.5-.1-.6-1.1l-2.1-1.8 5.6-3.7c3.1-2.1 6.7-3.8 8.1-3.8 1.4 0 8.6 1.8 16 4zm139-1c0 .5-.4 1-1 1-.5 0-1-.5-1-1 0-.6.5-1 1-1 .6 0 1 .4 1 1zm-30.2 3.7c-.7.9-.3 1.6 1.6 2.4 4.7 2.2 2.7 2.8-2.6.8-6.4-2.3-8.8-4.4-4-3.5 1.8.3 3.1.2 2.8-.2-.2-.4.4-.8 1.4-.8 1.4 0 1.6.4.8 1.3zm33.5 2.8c-.3.9-.8 1.4-1 1.1-.3-.3-.2-.9.2-1.5.9-1.6 1.5-1.3.8.4zm-105.2 4.9 7.4 2.6-7-.4c-4.6-.2-9.3-1.3-13.5-3l-6.5-2.6 6.1.4c3.3.3 9.4 1.7 13.5 3zM414 132c0 .5-.2 1-.4 1-.3 0-.8-.5-1.1-1-.3-.6-.1-1 .4-1 .6 0 1.1.4 1.1 1zm-132.6.8c.9.5-4 1.7-21.4 5.3-3 .6-7.4.8-9.8.5-4.2-.6-10.8-3.3-10-4.2 1.6-1.5 38.9-3 41.2-1.6zm-46.6 1.7c1.3.9 2.8 3.9 3.8 7.1 2.1 7.2 1.3 10.4-.9 3.8-2.5-7.2-4.5-8.7-12.3-9.2-6-.4-7.3-1-5.7-2.5 1.3-1.4 12.8-.7 15.1.8zm93.3 4c15 5 14.4 5.3-5.6 3.5-11.6-1-31.8-5.7-30.9-7.1.3-.5 5.6-.9 11.8-.9 10.7 0 12 .2 24.7 4.5zM206.5 136c-.3.5-1.1 1-1.6 1-2.3 0-16.6 7.3-19.3 9.8-4.4 4.2-5.6 8.1-5.6 18.4 0 16.2 2.5 20.4 14.7 25.2 5.1 2 5.9 2.6 3.3 2.2-1.9-.2-4.4-.7-5.5-1.1-1.4-.4-1.3-.2.5.9l2.5 1.6-3-.6c-4.6-1-11.1-5.1-13.9-8.7-3.9-5.1-5.5-9.9-6-17.9l-.5-7.3 1 6.5c.5 3.6 1.4 6.7 2 6.8.5.2.7.8.3 1.3-.3.5.1 1.7.8 2.8 1.1 1.5 1.3-.1 1.3-10.8 0-10.5.3-13.1 1.8-15.4 1-1.5 1.5-3.2 1.2-3.6-.8-1.4 7.5-5.8 17.1-9.1 10.3-3.4 9.7-3.3 8.9-2zm66.6 7.6c12.4 3.1 36.9 13.6 36.9 15.7 0 1.9-23.2-1.8-31.2-5-4.1-1.6-5-3.3-1.9-3.3 3.2 0 3.3-1.6.3-3.6-2.2-1.5-4.9-1.9-14.7-1.9-11.6-.1-19.8-1.5-21-3.5-.4-.6 3.5-1 10.3-1 8.5 0 13.2.6 21.3 2.6zm-116 .3c-1.4 1-1.9 2.1-1.3 2.4.5.4 1.5 0 2.2-.8.9-1 3.2-1.5 7.7-1.5 3.6 0 6.3.3 6.1.7-4.1 8.5-3.2 7.9-18 12.8-7.6 2.5-14.3 4.3-15 3.9-.6-.4-.8-.3-.4.4.8 1.3-5.9 3.6-7.5 2.6-.7-.4-.9-.3-.6.3.4.6-.1 1.3-1.1 1.6-.9.2-2.5.8-3.6 1.2-1.7.8-1.7.6-.2-2.3.8-1.6 2.1-3.2 2.8-3.5.7-.2 0-.4-1.5-.4-2.1 0-3.6 1-6.1 4.1-3.8 4.7-6 8.5-5.3 9.3.3.3 1.3-1 2.3-2.9 2.3-4.5 6.6-10 7.2-9.3.3.3-.9 2.5-2.7 5l-3.3 4.5 4.9-.1c4-.2 6.4.6 13 4 12.2 6.3 13.2 7.9 1.4 2-9.6-4.7-10.9-5.1-15.3-4.5-2.6.4-6.4 1.6-8.3 2.7-1.9 1.1-4 1.7-4.6 1.3-.8-.4-.9-.3-.5.5.5.8-.3 1.6-2.3 2.4-1.7.6-3.1 1.5-3.1 2 0 .4-.5.5-1 .2-.6-.4-2.4-1-4.1-1.5-3.8-1.1-5 .7-8.3 12.5-2.5 9.4-3.4 9.5-1.5.3 2.8-13.8 3.4-15 10.7-20.4 15.1-11.6 29.3-19.7 47.7-27.5 9.9-4.2 13.4-5 9.6-2zm139.1.6c3.3 1.4 7.5 3.5 9.2 4.8 5.7 4.4 33.7 16.7 44.6 19.7 4.3 1.2 4.4 1.3 2 2.3-5.3 2.2-43.7.2-48-2.4-1-.6-.2-.8 2.5-.4 2.2.3-.7-.9-6.5-2.6-12.1-3.6-14.4-4.9-6.7-3.8 3 .4 9.9 1 15.2 1.4 8 .6 9.7.5 9.3-.6-.5-1.5-22.4-13.7-30.3-16.9-3.2-1.3-3.9-1.9-2-1.5l3 .5-2.5-1.5-2.5-1.4 3.3-.1c1.8 0 6 1.1 9.4 2.5zM211 148c-5.7 5-9.8 6.6-10.7 4.3-.8-2 2-4.1 8.6-6.5 6.8-2.4 7.1-2.1 2.1 2.2zm40 1.4c0 3.1-4.6 4.3-6 1.5-1.3-2.4-1.3-2.7.8-3.2 4.1-1.1 5.2-.7 5.2 1.7zm-62.6 2.1c-1.5 3.7-1.8 6.6-.6 6.3.4-.1 1.7.3 3 1 2 1.1 3.4.9 10.4-1.8 4.5-1.7 10.3-3.2 12.9-3.3 2.6-.1 4.7-.4 4.7-.7-.1-1.8.4-2.3 1.1-1.1.7 1.1 1.4 1.1 4.1-.3 4.6-2.2 5.1-2 1.3.5-1.8 1.2-3.3 2.6-3.3 3.3 0 .7 1.6 2.7 3.5 4.6 3 2.9 3.5 4 3.5 8.1 0 5-1.3 9.1-3.9 12.3-1.9 2.3-1 1.9 5.7-2.7 2.4-1.6 4.6-2.7 4.8-2.4.3.3-1.1 1.5-3 2.7-4.1 2.5-4.5 3-1.5 2.5 3.9-.8-.6 3-7.4 6.1-5.6 2.6-7.2 2.9-16.7 2.9-9.3 0-11-.3-14.9-2.5-6.3-3.5-8.2-6.6-8.6-13.6-.2-3.2 0-6.4.5-6.9.4-.6 1-3.8 1.2-7.1.2-3.5 1.2-7.3 2.1-8.8 2.4-3.6 2.9-3.3 1.1.9zm81.8 5.8c2.3 3.6-1.9 3.7-5.3.1l-2.4-2.7 3.5.7c1.8.3 3.8 1.2 4.2 1.9zm-9.8.6c3.3 3.7-.4 5.5-5 2.5-2.3-1.6-2.3-1.7-.7-3 2.5-1.8 3.7-1.7 5.7.5zm17.1 5.4c3.3 5.8 3.2 7-.3 2.1-4-5.6-4.4-6.4-3.3-6.4.6 0 2.2 2 3.6 4.3zm-116.1 1.3c.3 2.5.4 5 .1 5.5-.9 1.4-6.9 2.1-9.5 1-2.2-.8-1.8-1 2.8-1 5-.1 5.2-.2 5.2-2.9 0-4-1.4-5.6-4.1-4.9-2.3.6-2.3.5-.5-.8 3.7-2.8 5.3-1.9 6 3.1zm104-1.5c1.3.6 3.2 2.7 4.2 4.5 1 1.9 2.6 3.4 3.5 3.4 2.5 0 5.2 3.5 4.5 5.8-1.6 5-7.2 5.2-8.2.3-.4-1.9-1.2-2.7-2.7-2.8-2-.2-2-.1-.4.8 2.3 1.4 2.1 3.5-.5 5.3-2 1.4-2.4 1.4-4.4-.5-1.7-1.6-2.1-3-1.9-6.5.1-2.4.8-5.2 1.6-6.2s.4-.7-.8.6c-4.5 4.6-2.3 14.7 3.6 17.2 2.6 1 3.9 1 7.7-.3l4.5-1.5-2.3 2.7c-3.2 3.6-4 4.1-6.9 4.1-2.9 0-7.3-3-9.1-6.3-3.3-6.3-2.7-13.3 1.8-18.7 3-3.5 2.6-3.3 5.8-1.9zm-12.1 1.8c2.4.9 2.5 1.3 1.6 4-1 2.7-1.3 2.9-4.7 2.4-2-.3-3.9-.8-4.1-1-.8-.6 2.9-7.4 3.8-6.9.4.3 2 1 3.4 1.5zm35.6 3.7c11.6 9.9 15.3 13.6 14.4 14.4-.4.4-4.9-.8-10-2.8-9-3.6-9.1-3.7-9.7-7.5-.4-2.2-1.3-5.2-2.2-6.8-2.3-4.5 0-3.6 7.5 2.7zm-8.2 3.6c-.3.8-.6.5-.6-.6-.1-1.1.2-1.7.5-1.3.3.3.4 1.2.1 1.9zm-102.1 15.4c.2.5-1.3 2.1-3.3 3.6-4 3.1-10.9 3.8-13.2 1.5-.9-.9-6.9-1.2-22.9-1.2-22.4 0-28.5.8-36.4 4.5-2.1 1-3.8 1.4-3.8.9 0-.6 2.4-2.1 5.3-3.4 8.9-4.1 35.3-5.7 55.3-3.3l10.2 1.1 3.3-2.6c3.4-2.6 5-3 5.5-1.1zm134.9 7.4c5 1.8 11 4.3 13.5 5.6l4.5 2.4-8.2-.7c-10.3-.7-10.6.3-1.8 5.9 3.6 2.3 6.1 4.5 5.5 4.8-.5.3 1.5 2.4 4.5 4.6 6.1 4.6 12.1 12.4 10.2 13.6-.7.4-.1 1.1 1.6 1.9 2.8 1.3 8.8 9.5 10.2 13.8.7 2.3.6 2.3-3.1 1.7-2.2-.4-5.8-1.6-8.1-2.6-2.4-1-4.3-1.6-4.3-1.3 0 .7 5.1 7.3 11.3 14.6 2.7 3.2 4.7 6 4.4 6.3-1 1.1-11.6-7-24.3-18.6-3.3-3-1.9-1.5 3.1 3.5 5 4.9 11 11.5 13.4 14.4 4.7 6.1 10.4 16.6 9.8 18.4-.2.6-2.1-.6-4.4-2.6-2.2-2-4.3-3.7-4.7-3.7-.4 0 2.1 3.7 5.5 8.1 7.5 9.8 15.9 22 15.9 22.9 0 1.1-7.8 2.1-16 2-7-.1-7.7-.3-11-3.4-3.7-3.4-14.6-11.6-15.4-11.6-.3 0-.2.8.1 1.7 1.4 3.6-9.9-6.8-17.2-15.7-2.5-3.1-2.7-3.2-2.1-1 1.1 3.6-.9.9-4.4-6.3l-2.8-5.8-1 3.1c-1.3 3.6-3.1 3.8-6 .7-2.6-2.8-3.8-5.8-4.7-12.6-.7-5.5-.7-5.5-2.2-2.8-1.5 3-1.7 3.1-4.3 1.7-2.9-1.6-17.1-18-16.5-19 .4-.6 1.7-1 3.1-1 3.9 0 2.8-1.8-1.6-2.5s-4.5-2.5-.2-2.5c1.5 0 3.3-.4 4.1-.9 1.1-.7-.3-1.3-4.7-2.2-3.4-.7-6.2-1.7-6.2-2.1 0-.4 2.6-.8 5.7-.8h5.6l-2.3-2.6c-3.1-3.2-1.6-4.4 6-4.4l5.5-.1-2.4-1.9c-1.3-1.1-4.5-2.8-7.2-3.7-2.7-1-4.9-2.1-4.9-2.6 0-.4 2.4-1.9 5.4-3.3 3.9-1.8 6.2-2.3 8.3-1.8 4.4 1.1 11 4.3 12.9 6.2 1.3 1.3 1.6 1.3 1.2.2-.2-.8-2.4-2.6-4.9-4l-4.4-2.4 5.8-1.4c3.2-.8 5.5-1.8 5-2.2-1.3-1.3-12.1-3-19.7-3.1-3.9 0-8-.4-9.1-.9-1.7-.7-1.4-1.1 2.6-2.9 9-4 14.8-5.1 25.9-4.7 8.7.3 12 .9 19.5 3.6zm-165.9.5c6.8 1.8 8.5 3 2.9 2.1-2.2-.3-11.9-.9-21.5-1.3-19.6-.7-19.5-2 .2-2.2 8.3-.1 14.7.4 18.4 1.4zm15.7 15.8c.9 1.8 1.7 6.1 1.8 9.5.3 7-1.2 10-7.1 13.9-5.3 3.7-6.9 2.8-2.8-1.5 6.2-6.2 9.6-16.8 6.9-21-.6-1-1.1-.5-2 1.7-1.3 3.1-4.8 6.8-5.6 5.9-.3-.3 0-1.9.6-3.7.6-1.8.9-5.8.7-9l-.4-5.8 3.2 3.4c1.8 1.8 3.9 4.8 4.7 6.6zm-30.1-6.8c0 .5-.5 1.1-1.1 1.3-.6.2-1.1-.4-1.1-1.3s.5-1.5 1.1-1.3c.6.2 1.1.8 1.1 1.3zm128.3 15.6 3 1.4-5.5.2c-8.8.5-12 1.2-12 2.9 0 .8-.4 1.3-.8 1-.4-.2-.8 1.1-.8 3 0 2.3-.8 4.2-2.3 5.7l-2.2 2.2.5-2.5c1.4-7.2 1.6-14.8.4-15.4-.7-.3 2.8-.4 7.7-.3 5 .2 10.3 1 12 1.8zM69 222c0 .5-.4 1-1 1-.5 0-1-.5-1-1 0-.6.5-1 1-1 .6 0 1 .4 1 1zm182.9 11.5c2.6 7.9 2.7 9.5.5 7.4-.8-.9-1.8-3.6-2.1-6-.3-2.4-1.2-4.8-1.9-5.2-1.8-1-1.8-2.7 0-2.7.9 0 2.2 2.5 3.5 6.5zM237 260.8c3.4 6.9 7.4 14.4 9 16.8 3.4 4.8 7.5 13.8 6 12.9-.6-.3-1-.1-1 .5s-.4.8-1 .5c-.5-.3-1-1.1-1-1.6 0-.6.5-.7 1.2-.3.7.4.8.3.4-.5-.4-.6-1.2-.9-1.7-.6-1.1.8-9.2-11.7-13-20-3.8-8.4-7.5-21.5-8.3-29l-.6-6 2 7.5c1.1 4.1 4.7 13 8 19.8zm21.2-15.6c-.7 2.8-2.2.2-2.1-3.7v-3l1.3 2.4c.7 1.3 1.1 3.3.8 4.3zm-95.4-2.7c-.3 1.4-.1 2.5.4 2.5s-1.3 2.2-4.1 4.9c-4.2 4.1-5.1 5.6-5.1 8.4 0 1.8.3 3.7.7 4.1.4.4.9 2.8 1 5.4.4 5.1 2.2 11.7 3 10.8.7-.7 5.5 6.8 7.5 11.9 3.6 8.8 7 15.5 7.7 15 .5-.2 1.3 1.4 2 3.5 1.1 3.9 3.4 5.3 4.4 2.7.3-.7.6-.5.6.5.1 1.3-.7 1.8-2.4 1.8-1.4 0-2.5-.5-2.5-1.1 0-.6-.7-.8-1.5-.5-.9.3-2.3.2-3.3-.4-.9-.5-2.9-1.1-4.5-1.5-2.8-.6-6.7-3.7-6.7-5.5 0-.5 1.9-.3 4.1.5 5.1 1.8 4.6 1.9 5.2-.5.3-1 .2-1.9-.2-1.8-.3.1-2.2-.5-4.1-1.4-1.9-.9-4.6-2-6-2.6-1.9-.7-3-2.5-4.8-7.8-2-6.2-2-7-.6-8.1 2.2-1.6 1.4-5.7-1.3-6.1-1.7-.3-2.5-1.7-4.2-8.1-1.2-4.2-2.1-8.5-2.1-9.5 0-3.3 3.4-7.6 9.7-12.2 3.5-2.6 6.3-5.3 6.3-6 0-.8.3-1.4.6-1.4.4 0 .4 1.1.2 2.5zm3.7.4c-.3.6-1.1 1.1-1.7 1.1-.6 0-.6-.6.2-1.5 1.4-1.7 2.6-1.3 1.5.4zm8.1 14 10.2.6-1.6 3.9-1.5 3.9-12-.6c-6.6-.3-12.4-1-12.8-1.4-.5-.5.3-2.6 1.7-4.7 1.9-2.8 3-3.6 4.2-3 1 .4 6.3 1 11.8 1.3zm42 .6c-.8 3 1.1 10 3.1 11.6 1.5 1.3 1.8 4.3.3 3.4-.7-.4-.9.2-.6 1.7 4.3 19.3 3.1 20.7-3.6 3.9l-6-15.3-2.9.6c-1.6.3-2.9.2-2.9-.3 0-1.4 5-5.5 8.3-6.7 4.7-1.7 5-1.6 4.3 1.1zm-27.2 23c2.1 5.2 4.6 10.1 5.6 10.8 2.6 1.8 7 11.2 7 15 0 1.8.5 3.8 1.1 4.4 2 2-.1 3.3-5.5 3.3-5 0-5.3-.2-6.9-3.5-3.5-7.4-.8-8.9 4.3-2.5 1.8 2.3 3.5 3.9 3.7 3.6.3-.3-.8-2.9-2.4-5.8-1.7-2.9-5.6-11.4-8.8-18.8-3.1-7.4-6-13.9-6.3-14.4-.3-.5.2-.7 1.1-.3 1 .3 1.7.2 1.7-.3 0-3.2 2.1.2 5.4 8.5zm-12.7-4.3c-.3.8-.6.5-.6-.6-.1-1.1.2-1.7.5-1.3.3.3.4 1.2.1 1.9zm137.9 20.9c4.6 3.4 8.4 6.4 8.4 6.6 0 1.6-15-9.8-22.3-16.9l-6.2-6 5.8 5.1c3.2 2.8 9.6 7.8 14.3 11.2zm-85.9 5.1c-1.4 3.4-3.4 5.5-4.2 4.6-.2-.2.6-2.4 1.8-5 2.5-5.2 4.6-4.9 2.4.4zm-92.1 2.3c1.2 1.8 1.2 2.8.3 4.8-1.7 3.7-3.5 4-7.5 1.4-2.6-1.7-3.4-2.8-3.2-4.7.6-4.9 7.5-5.9 10.4-1.5zm41.5.9c1 2 .9 2-.5.2-.9-1-2.2-1.6-3.1-1.3-1.5.6-2.1-.4-.9-1.6 1-1 3.4.4 4.5 2.7zM121 305c0 .5-.2 1-.4 1-.3 0-.8-.5-1.1-1-.3-.6-.1-1 .4-1 .6 0 1.1.4 1.1 1zm210 3.1 2.5 2-3.2-1.6c-1.8-.8-3.3-1.8-3.3-2 0-1 1.6-.4 4 1.6zm-276.2 2.3c.3 1.2-.1 1.7-1 1.4-.7-.3-1.5-1.3-1.6-2.2-.3-1.2.1-1.7 1-1.4.7.3 1.5 1.3 1.6 2.2zm73.4 5.5c3.2 2.8 3.3 3.3 3.6 11.3.4 8.4.4 8.4-2.5 9.7l-2.8 1.4 2.5.6c2.3.6 2.5 1.2 2.8 7l.3 6.3-7.8-.4-7.8-.3-.3-3.8c-.2-2-.8-3.7-1.3-3.7-1.6 0-11.9 6.1-11.9 7.1 0 .5-3.3.9-7.4.9h-7.3l-.7-4.6c-.9-6.7-.8-22.4.2-22.4.5 0 1.7-.7 2.8-1.5 1.8-1.5 1.8-1.5-.8-.9s-2.8.4-2.8-2.4c0-1.6-.7-3.6-1.7-4.3-1.5-1.3-1.2-1.5 2.3-2 2.1-.3 11.4-.7 20.6-.8l16.8-.1 3.2 2.9zm283.8-2.1c0 .4-.4 1.2-.9 1.7-.6.6-1.1 3.4-1.3 6.4l-.3 5.4-7.7 3.3-7.8 3.3v-4.4c0-6.9-.5-7.5-6.5-7.5-3 0-5.7.5-6 1-.4.6-.3 3.5 0 6.5.7 5.4.8 5.5 4.1 5.5 1.8 0 3.6-.5 3.9-1 1.5-2.5 2.5-.5 2.5 5v6h-3c-2.2 0-3-.5-3-1.8-.1-1.6-.2-1.6-1.3 0-1 1.3-3.2 1.7-9.8 1.9l-8.4.2-.8-4.8c-.4-2.6-.7-7.1-.5-9.9.3-4.2.7-5.3 2.8-6.3l2.5-1.3h-2.7c-2.4 0-2.8-.4-2.8-2.9 0-1.7-.4-3.3-1-3.6-2.6-1.6-.3-2.4 7.3-2.8 17.9-.7 40.7-.7 40.7.1zm-55.1 1.7c3.8 1.9 5.1 6 5.1 16.1v8.3l-3.2 1.8-3.3 1.8 3.3.3c5.6.6 2.4 2.2-4.3 2.2-7.5 0-7.5 0-7.5-11.5 0-10-1.3-12-6.8-11.1-2 .3-3.9 1.1-4.4 1.8-.4.7-.8 5.7-.8 11v9.8h-7.4c-8.6 0-8.6.1-8.6-12.1 0-7.3.1-7.5 2.8-8.6l2.7-1.1-2.7-.1c-3.4-.1-3.7-2.7-.9-6.2 1.6-2 3.1-2.5 9.8-3 15.3-1.1 23.3-1 26.2.6zm-51.2 2.3c-1.1 1.2-1.7 3.6-1.7 6.5v4.6l-7.2 4.1c-4 2.2-7.9 4-8.5 4-.9 0-1.3-1.5-1.3-4.3 0-3.8.4-4.6 2.6-5.6 4.1-1.8 2.3-2.3-6-1.5l-7.7.7.3 4.5.3 4.6 12 5.4c6.6 2.9 12.4 5.7 12.9 6.3.6.5-3.5.9-11 .9-11.5-.1-12.2-.2-20.9-3.8l-9-3.8-.3-5.7c-.3-5.2-.1-5.7 2.5-7.1l2.8-1.5-2.6-.1c-2.1 0-2.8-.6-3.1-2.8-.3-1.5-.8-3.5-1.3-4.4-.7-1.9-2-1.8 37.9-2.6 10.5-.2 10.8-.1 9.3 1.6zm-53.4 3.6c2.2 2.2 3.6 4.7 4 7.2 1.2 7.1.8 9.1-2 11.3l-2.8 2 2.8.1c2 0 2.7.5 2.7 1.9 0 4.6-.9 5.1-8.5 5.1h-7.4l-.5-5.3c-.4-2.8-.7-7.7-.9-10.7l-.2-5.5-5.7-.3-5.8-.3v22.2l-7.7-.3-7.8-.3-.3-9.2c-.3-9.2-.3-9.2 2.5-10.7l2.8-1.5-3.2-.1c-3 0-3.3-.3-3.3-2.9 0-1.7-.5-3.3-1-3.6-3-1.9 1.9-2.5 19.5-2.5h19.4l3.4 3.4zM206 321c-.7 1.2-2.1 2-3.8 2l-2.7.1 2.8 1.5c2.6 1.4 2.7 1.8 2.7 9.4 0 4.4-.4 8-.8 8-1.3 0-13.6-5.1-14.9-6.2-.6-.5-1.3-2.4-1.5-4.1-.3-3.2-.4-3.2-6.1-3.5l-5.8-.3.1 6.8c.1 3.7.1 8.8.1 11.3l-.1 4.5h-7.3c-8.5 0-8.4.1-8.6-11.8-.1-7.8-.1-7.8 2.2-6.6l2.2 1.2-2.1-2.4c-1.2-1.3-2.4-3.5-2.6-4.9-.3-1.4-.9-3.3-1.3-4.2-.8-2 2.6-2.2 31.8-2.6 16.5-.2 16.8-.2 15.7 1.8zm-51.8.2c-.7.7-1.2 2-1.2 3s-.7 2.1-1.6 2.5c-1.5.5-1.5.7 0 1.5 1.3.7 1.6 2.8 1.6 11.8v10.8l-7.9.4-7.9.3-.6-5.9c-.3-3.2-.6-9.4-.6-13.6 0-5.9-.4-8.1-1.6-9.1-1.4-1.2-1.4-1.4.3-2 1-.4 6.1-.8 11.3-.8 7.3-.1 9.1.2 8.2 1.1zm-5.2 55.5c0 .5-.7 1.7-1.5 2.7-1 1.4-1.5 4.5-1.5 9.7v7.7l-10.2 5.5c-5.7 3.1-10.3 5.5-10.4 5.4-.1-.1-.4-3.5-.8-7.4l-.7-7.3 3.3-2 3.3-2-10 .2-10 .3-.3 6.5c-.1 3.6.1 7 .5 7.6.5.6 6.9 3.6 14.4 6.7 24.3 10.1 22.9 9.3 22.9 13.2 0 3.5 0 3.5-4.7 3.6-2.7 0-8.7.3-13.4.5l-8.7.5-15.6-6.1-15.6-6.1v-3.3c0-1.8-.3-6.7-.6-10.9l-.7-7.5 3.9-2.1 3.9-2-3.7-.1c-3.5 0-3.8-.2-3.8-2.8 0-1.5-.7-3.8-1.6-5-.9-1.3-1.4-2.5-1.2-2.7.2-.3 13.7-1.1 29.9-1.8 16.2-.8 30.2-1.5 31.2-1.6.9 0 1.7.2 1.7.6zm263.9.9c-.9 1.1-1.6 5.6-1.9 13.2l-.5 11.4-15 7.7-15 7.7-13.1.3-13.1.2-.6-6.8c-.4-3.7-.7-9.3-.7-12.4 0-5.3.2-5.6 3.3-7.2l3.2-1.6h-3.1c-2.9-.1-3.2-.5-3.9-3.9-.4-2-1.4-4.5-2.2-5.4-1.4-1.6-1.3-1.8.8-2.2 2.3-.5 38.4-2.1 55.3-2.4 7.2-.2 7.7-.1 6.5 1.4zm-67.3 3.6c-1.1 1.5-1.6 4.5-1.6 9.3v7.1l-9.7 4.2c-5.4 2.3-10.1 4.2-10.5 4.2-.5 0-.8-2.9-.8-6.4 0-8.3-.9-9-9.6-8.1l-6.7.8.7 12.3c.4 6.8.5 13.3.1 14.4-.6 1.8-1.5 2-10 2-5.2 0-9.6-.3-9.8-.8-.3-.4-.8-5.9-1.2-12.3l-.7-11.6 3.1-1.3c4.5-1.8 4.8-3 .6-2.3-3.4.5-3.5.5-3.5-2.6 0-1.7-.7-4.3-1.6-5.7-.9-1.3-1.5-2.6-1.3-2.8.5-.5 38.7-2.2 53.2-2.4l10.8-.2-1.5 2.2zm-66.5 3.1c-.6.6-1.1 2.7-1.1 4.7 0 2.7-.8 4.3-3 6.5-3.5 3.3-3.3 4.4.3 2l2.5-1.6.7 10.3c1.1 16.2 1.7 15.2-9.4 15.6-10.1.3-11-.1-11.1-4.8-.1-2.4-.2-2.3-1.5.7-1.8 4.2-5.7 5.2-21.8 5.5-7 .2-12.7.2-12.7.1 0-.3 24.1-13.8 29.8-16.7l5.2-2.6v-10h-6.4c-7.5 0-9.9 1.6-9.3 5.9.4 2.6-.1 3.1-9.8 7.9-5.7 2.8-10.6 4.8-10.9 4.5-.3-.4-.6-4.8-.6-9.9v-9.2l3.3-2.1 3.2-2.1h-3.6c-2.3 0-4.2-.7-5.4-2-1-1.1-1.6-2.2-1.4-2.4.8-.9 63.4-3.1 63.8-2.3.2.5-.2 1.4-.8 2zm-66.1 1c0 .7-.6 1.9-1.2 2.6-1 .9-1.2 5.1-.9 16 .2 12 0 15.4-1.3 17.8l-1.5 3.1-10.3.1c-5.7.1-17.1.4-25.4.7l-15.1.6-.6-6.3c-.4-3.4-.7-8.6-.7-11.5 0-5.2.1-5.4 3.8-7.3l3.7-2-4.2-.1c-4.2 0-4.3 0-4.3-3.5 0-2-.7-4.7-1.6-6-.9-1.4-1.5-2.5-1.3-2.6.2 0 13-.6 28.4-1.3 15.4-.7 29-1.4 30.3-1.5 1.2 0 2.2.5 2.2 1.2zm199 28.4c-.1 2.2-2 3.4-5.1 3.1l-3.4-.3 3-1.7c3.2-1.8 5.5-2.3 5.5-1.1z"/><path d="M400.3 131.8c-2.8.4-3.1 2.2-.4 2.2 2.3 0 10.3 7.8 9.4 9.3-.3.6-.1.7.5.3.8-.5-.2-2.6-3-6.4-2.2-3.1-4.2-5.7-4.2-5.7-.1-.1-1.1.1-2.3.3zM411 144.7c0 .6.8 1.7 1.8 2.4 1.6 1.3 1.6 1.3.2-.6-.8-1.1-1.6-2.2-1.7-2.4-.2-.2-.3 0-.3.6zM334 188c.8.5 2 1 2.5 1 .6 0 .3-.5-.5-1s-1.9-1-2.5-1c-.5 0-.3.5.5 1zM432.6 308.5c-.4 1.2-1.5 1.5-5.1 1-3.5-.4-4.5-.2-4.5.9 0 .8-.4 1.8-1 2.1-.6.4-.7-.1-.4-1.2.3-1-.4-.2-1.6 1.7-2.3 3.5-3.6 8.5-2 7.5.5-.3.7-1.2.3-2-.3-.8 0-1.5.6-1.5s1.1-.8 1.1-1.8c0-1.4.2-1.5 1-.2.5.8 1 1.1 1 .6 0-.5.7-.2 1.6.5 1.4 1.1 1.6 1 1.2-1.1-.2-1.4.3-2.5 1.2-2.7 1.2-.4 1.2-.2.2.5s-1 1.1.3 2.2 1.5.9 1.5-.9c0-1.9 1-2.6 3.2-2.2.9.1 3.1-3.9 2.5-4.5-.2-.3-.7.2-1.1 1.1zM440 310.9c0 .5.7 1.2 1.6 1.5 1.4.5 1.5.4.4-.9-1.4-1.7-2-1.9-2-.6z"/><path d="M429.9 312.2c-.3.8-.6 6.8-.4 6.8.9 0 2.2-6 1.4-6.5-.5-.4-.9-.5-1-.3zM434.1 326.7c-.1.6-.4 2-.7 3-.5 1.7-.5 1.7.6 0 .6-1 .9-2.3.6-3-.3-.9-.5-.9-.5 0zM430 338.9c0 .7-.5.9-1.2.5s-.8-.3-.4.4.2 1.2-.4 1.2c-.6 0-.9.4-.6.9.4.5.1 1.1-.6 1.3-.8.3-.8.9.1 2.4.7 1 1 1.2.8.4-.2-.8.5-2.8 1.6-4.3 1-1.6 1.6-3.1 1.3-3.4-.3-.4-.6-.1-.6.6zM423 348.9c-.7 1.5-.7 2.2.2 2.7.7.4 1 .4.6-.1-.4-.4-.3-1.6.3-2.6.5-1.1.7-1.9.5-1.9-.3 0-1 .9-1.6 1.9zM421.6 353.4c.5 1.3.4 1.7-.4 1.2-1.4-.8-6.2 6.5-6.7 10.3-.2 1.4-.2 2 .1 1.3.3-.6 1-.9 1.6-.6.6.4.8-.2.6-1.2-.2-1.1.6-2.7 1.7-3.7s1.4-1.6.8-1.2c-2.2 1.1-1.4-.5 1.5-3 2.2-1.9 2.5-2.6 1.4-3.7s-1.2-1-.6.6zM222.4 108.2l-1.9 2.3 2.3-1.9c2.1-1.8 2.7-2.6 1.9-2.6-.2 0-1.2 1-2.3 2.2zM243.8 108.7c.6.2 1.8.2 2.5 0 .6-.3.1-.5-1.3-.5-1.4 0-1.9.2-1.2.5zM236.5 110c-2.5 1.1.1 1.1 3.5 0 2-.6 2.1-.8.5-.8-1.1 0-2.9.3-4 .8zM214.9 113.7l-2.4 2.8 2.8-2.4c2.5-2.3 3.2-3.1 2.4-3.1-.2 0-1.4 1.2-2.8 2.7zM111.9 168.7c-1.3 1.6-1.2 1.7.4.4.9-.7 1.7-1.5 1.7-1.7 0-.8-.8-.3-2.1 1.3zM261.3 173.5c0 .7.6 1.1 1.4.8.7-.3 1.3-.6 1.3-.8 0-.2-.6-.5-1.3-.8-.8-.3-1.4.1-1.4.8zM149.4 267.7c.3 1 .8 3 1.2 4.5.4 1.9 1.3 2.8 2.6 2.8 1.4 0 1.8-.5 1.4-1.6-.3-.9-.6-2.2-.6-2.9 0-.7-1.2-2-2.6-3-2.5-1.6-2.6-1.6-2 .2zM155.3 283.7c-1.7.6-1.6 2.6.4 6.8 2.6 5.4 4.4 4.6 2.7-1.3-1.9-6.2-1.7-6-3.1-5.5zM160.6 285.3c.3 1 .9 1.5 1.2 1.2.3-.3 0-1.1-.7-1.8-1-.9-1.1-.8-.5.6zM188 283.5c0 .5.5 1.7 1 2.5s1 1 1 .5c0-.6-.5-1.7-1-2.5s-1-1.1-1-.5zM191.1 290.7c0 .5 2 4.6 4.4 9.3 4.3 8.3 4.4 8.4 4.4 4.7.1-4.6-2.9-10.8-6.3-13.1-1.4-.9-2.6-1.3-2.5-.9zM191 307.2c.1 1.8 2.9 6.6 3 4.9 0-1.1.3-1.1 1.7 0 1.2.9 1 .3-.5-1.8-2.7-3.8-4.2-4.9-4.2-3.1zM103 331.2c0 9 .1 9.2 1.8 7.2.9-1.2 3.6-3.1 6-4.3 4.1-2.1 4.2-2.3 4.2-7.1v-5h-12v9.2zM379.8 388.7l-5.8.4v10.7c0 7.3.3 10.2 1 9.2.5-.8 1-2.2 1-3 0-.8 3.2-3.2 7-5.3 5.8-3.1 7-4.2 7-6.3 0-3.2-1.7-6.5-3.3-6.2-.7.1-3.8.3-6.9.5zM177 401.4c0 1.8.3 6.1.6 9.5l.7 6.1h5.7c8.3 0 9.5-1.3 9.2-9.6-.2-3.8-.8-7.4-1.4-8.1-.7-.8-3.6-1.3-7.9-1.3H177v3.4z"/></svg>